P3
2 2 255
255 255 255
132 51 12
123 24 150
14 255 199
