P3 5 3 255

255 255 255 
255 255 127
255 127 0
127 0 0
0 0 127

127 127 127
160 140 160
255 60 255
200 0 8
45 240 100

0 0 0
20 40 40
50 90 150
80 140 200
100 150 255


