P3 2 2 280

280 280 280
132 51  12

123 24 150
14 277 199
